# Blender v2.92.0 OBJ File: 'torp.blend'
# www.blender.org
mtllib h_fins.mtl
o Fins_Cube.001_Fins_Cube.004
v -0.000001 -0.012469 -0.239411
v -0.000001 0.012149 -0.058879
v -0.000001 0.012149 -0.239411
v -0.003804 -0.011867 -0.239411
v -0.007236 -0.010118 -0.239411
v -0.009959 -0.007395 -0.239411
v -0.011707 -0.003964 -0.239411
v -0.012310 -0.000160 -0.239411
v -0.011707 0.003644 -0.239411
v -0.009959 0.007075 -0.239411
v -0.007236 0.009798 -0.239411
v -0.003804 0.011547 -0.239411
v 0.000000 -0.012469 -0.058879
v -0.003804 -0.011867 -0.058879
v -0.007236 -0.010118 -0.058879
v -0.009959 -0.007395 -0.058879
v -0.011707 -0.003964 -0.058879
v -0.012310 -0.000160 -0.058879
v -0.011707 0.003644 -0.058879
v -0.009959 0.007075 -0.058879
v -0.007236 0.009798 -0.058879
v -0.003804 0.011547 -0.058879
v 0.099933 -0.000160 -0.215975
v 0.099933 -0.000160 -0.089603
v 0.099933 -0.000160 -0.215975
v 0.099933 -0.000160 -0.089603
v -0.000001 -0.012469 0.239411
v -0.000001 -0.012469 0.058879
v -0.000001 0.012149 0.239411
v -0.003804 -0.011867 0.239411
v 0.099933 -0.000160 0.215975
v -0.007236 0.009798 0.239411
v -0.003804 -0.011867 0.058879
v 0.099933 -0.000160 0.089603
v -0.000001 0.012149 0.058879
v -0.003804 0.011547 0.058879
v -0.007236 -0.010118 0.058879
v -0.007236 0.009798 0.058879
v -0.009959 0.007075 0.058879
v -0.011707 0.003644 0.058879
v -0.003804 0.011547 0.239411
v -0.012310 -0.000160 0.058879
v -0.011707 0.003644 0.239411
v -0.009959 0.007075 0.239411
v -0.011707 -0.003964 0.058879
v -0.009959 -0.007395 0.058879
v -0.011707 -0.003964 0.239411
v -0.012310 -0.000160 0.239411
v -0.009959 -0.007395 0.239411
v -0.007236 -0.010118 0.239411
vt 0.710000 0.660000
vt 0.710000 0.660000
vt 0.710000 0.660000
vt 0.710000 0.660000
vt 0.710000 0.660000
vt 0.710000 0.660000
vt 0.710000 0.660000
vt 0.710000 0.660000
vt 0.710000 0.660000
vt 0.710000 0.660000
vt 0.710000 0.660000
vt 0.710000 0.660000
vt 0.710000 0.660000
vt 0.710000 0.660000
vt 0.710000 0.660000
vt 0.710000 0.660000
vt 0.710000 0.660000
vt 0.710000 0.660000
vt 0.710000 0.660000
vt 0.710000 0.660000
vt 0.710000 0.660000
vt 0.710000 0.660000
vt 0.710000 0.660000
vt 0.710000 0.660000
vt 0.710000 0.660000
vt 0.710000 0.660000
vt 0.710000 0.660000
vt 0.710000 0.660000
vt 0.710000 0.660000
vt 0.710000 0.660000
vt 0.710000 0.660000
vt 0.710000 0.660000
vt 0.710000 0.660000
vt 0.710000 0.660000
vt 0.710000 0.660000
vt 0.710000 0.660000
vt 0.710000 0.660000
vt 0.710000 0.660000
vt 0.710000 0.660000
vt 0.710000 0.660000
vt 0.710000 0.660000
vt 0.710000 0.660000
vt 0.710000 0.660000
vt 0.710000 0.660000
vt 0.710000 0.660000
vt 0.710000 0.660000
vt 0.710000 0.660000
vt 0.710000 0.660000
vt 0.710000 0.660000
vt 0.710000 0.660000
vn 0.0000 0.0000 1.0000
vn 0.0000 0.0000 -1.0000
vn 0.1564 -0.9877 0.0000
vn 0.4540 -0.8910 0.0000
vn 0.7071 -0.7071 0.0000
vn 0.8910 -0.4540 0.0000
vn 0.9877 -0.1564 0.0000
vn 0.9877 0.1564 -0.0000
vn 0.8910 0.4540 -0.0000
vn 0.7071 0.7071 -0.0000
vn 0.4540 0.8910 -0.0000
vn 0.1564 0.9877 0.0000
vn -0.9493 -0.1170 -0.2919
vn 0.9816 0.1209 0.1475
vn -0.1222 0.9925 -0.0000
vn -0.9667 0.1190 0.2267
vn 0.9860 -0.1215 -0.1141
vn -0.1222 -0.9925 0.0000
vn 0.0001 0.0000 1.0000
vn 0.1563 0.9877 -0.0000
vn -0.1223 0.9925 0.0000
vn -0.2283 0.0000 0.9736
vn -0.2939 -0.0000 -0.9558
vn 0.1222 -0.9925 0.0000
vn -0.1564 -0.9877 0.0000
vn 0.2283 0.0000 0.9736
vn -0.1563 -0.9877 -0.0000
vn 0.1222 0.9925 -0.0000
vn 0.2939 0.0000 -0.9558
vn -0.1564 0.9877 -0.0000
vn -0.7071 0.7071 0.0000
vn -0.4540 0.8910 0.0000
vn -0.9877 0.1564 0.0000
vn -0.8910 0.4540 0.0000
vn -0.8910 -0.4540 -0.0000
vn -0.9877 -0.1564 -0.0000
vn -0.4540 -0.8910 -0.0000
vn -0.7071 -0.7071 -0.0000
usemtl 45-36ANGray
s off
f 4/1/1 11/2/1 7/3/1
f 21/4/2 2/5/2 15/6/2
f 3/7/3 22/8/3 12/9/3
f 12/9/4 21/4/4 11/2/4
f 11/2/5 20/10/5 10/11/5
f 10/11/6 19/12/6 9/13/6
f 9/13/7 18/14/7 8/15/7
f 8/15/8 17/16/8 7/3/8
f 7/3/9 16/17/9 6/18/9
f 6/18/10 15/6/10 5/19/10
f 5/19/11 14/20/11 4/1/11
f 1/21/12 14/20/12 13/22/12
f 13/22/13 24/23/1 26/24/14
f 1/21/15 26/24/15 23/25/15
f 3/7/16 23/25/1 25/26/17
f 3/7/18 24/23/18 2/5/18
f 6/18/19 5/19/19 7/3/19
f 5/19/1 4/1/1 7/3/1
f 4/1/1 1/21/1 11/2/1
f 1/21/1 3/7/1 11/2/1
f 3/7/1 12/9/1 11/2/1
f 11/2/1 10/11/1 7/3/1
f 10/11/1 9/13/1 7/3/1
f 9/13/1 8/15/1 7/3/1
f 13/22/2 14/20/2 2/5/2
f 14/20/2 15/6/2 2/5/2
f 15/6/2 16/17/2 17/16/2
f 17/16/2 18/14/2 19/12/2
f 19/12/2 20/10/2 21/4/2
f 21/4/2 22/8/2 2/5/2
f 15/6/2 17/16/2 19/12/2
f 19/12/2 21/4/2 15/6/2
f 3/7/3 2/5/3 22/8/3
f 12/9/4 22/8/4 21/4/4
f 11/2/5 21/4/5 20/10/5
f 10/11/6 20/10/6 19/12/6
f 9/13/7 19/12/7 18/14/7
f 8/15/8 18/14/8 17/16/8
f 7/3/9 17/16/9 16/17/9
f 6/18/10 16/17/10 15/6/10
f 5/19/11 15/6/11 14/20/11
f 1/21/20 4/1/20 14/20/20
f 3/7/18 25/26/18 24/23/18
f 1/21/21 13/22/21 26/24/21
f 3/7/22 1/21/22 23/25/22
f 13/22/23 2/5/23 24/23/23
f 27/27/24 28/28/24 34/29/24
f 27/27/25 33/30/25 28/28/25
f 27/27/1 29/31/1 32/32/1
f 27/27/26 31/33/26 29/31/26
f 27/27/27 30/34/27 33/30/27
f 30/34/1 27/27/1 32/32/1
f 27/27/24 34/29/24 31/33/24
f 29/31/28 31/33/28 34/29/28
f 28/28/29 35/35/29 34/29/29
f 29/31/28 34/29/28 35/35/28
f 29/31/30 35/35/30 36/36/30
f 28/28/2 33/30/2 35/35/2
f 38/37/2 36/36/2 35/35/2
f 33/30/2 37/38/2 35/35/2
f 38/37/2 35/35/2 37/38/2
f 32/32/31 38/37/31 39/39/31
f 40/40/2 39/39/2 38/37/2
f 41/41/32 36/36/32 38/37/32
f 41/41/32 38/37/32 32/32/32
f 40/40/2 38/37/2 37/38/2
f 29/31/1 41/41/1 32/32/1
f 29/31/30 36/36/30 41/41/30
f 45/42/2 42/43/2 40/40/2
f 43/44/33 40/40/33 42/43/33
f 44/45/34 39/39/34 40/40/34
f 44/45/34 40/40/34 43/44/34
f 37/38/2 45/42/2 40/40/2
f 37/38/2 46/46/2 45/42/2
f 47/47/35 45/42/35 46/46/35
f 48/48/36 42/43/36 45/42/36
f 48/48/36 45/42/36 47/47/36
f 43/44/19 48/48/19 47/47/19
f 43/44/33 42/43/33 48/48/33
f 49/49/1 50/50/1 47/47/1
f 47/47/35 46/46/35 49/49/35
f 50/50/1 30/34/1 47/47/1
f 30/34/1 32/32/1 47/47/1
f 32/32/1 44/45/1 47/47/1
f 44/45/1 43/44/1 47/47/1
f 50/50/37 33/30/37 30/34/37
f 49/49/38 37/38/38 50/50/38
f 50/50/37 37/38/37 33/30/37
f 49/49/38 46/46/38 37/38/38
f 32/32/31 39/39/31 44/45/31
